<?xml version="1.0" encoding="UTF-8"?>
<svg id="Layer_1" data-name="Layer 1" xmlns="http://www.w3.org/2000/svg" viewBox="0 0 237.33 349.33">
  <defs>
    <style>
      .cls-1 {
        fill: #188cba;
      }

      .cls-2 {
        fill: #09ab54;
      }
    </style>
  </defs>
  <g>
    <circle class="cls-2" cx="92.49" cy="102.29" r="9.24"/>
    <circle class="cls-2" cx="136.26" cy="102.29" r="9.24"/>
    <g>
      <path class="cls-2" d="M114.2,96.35c0,.17,0,.26,0,.26,0,0,0-.09,0-.26Z"/>
      <path class="cls-2" d="M64.02,102.7s-.03-.3-.07-.86h0c0,2.39.19.44.07.86Z"/>
      <path class="cls-2" d="M114.21,56.3c-51,.29-50.64,39.26-50.26,45.54.03-6.53,5.31-24.62,27.47-25.74,21.31-1.08,22.7,17.8,22.78,20.25-.02-2.35.55-20.02,23.71-20.25,17.94-.17,23.74,10.26,25.79,20.79.83,4.24.97,8.59.65,12.9-.3,3.94-.7,9.57-3.66,16-3.31,7.22-9.14,11.84-15.81,15.77-4.72,2.78-9.62,5.35-14.59,7.88-26.71,14.89-40.31,35.66-40.73,36.31,11.38-14.08,27.7-21.59,43.1-30.25,9.42-5.3,17.13-9.14,24.75-16.97.89-.91,1.74-1.88,2.52-2.9,18.33-24.2,13.05-79.67-45.73-79.34Z"/>
    </g>
    <path class="cls-2" d="M161.72,138.77c-50.15,47.07-108.28,43.81-24.09,93.24,13.56,7.96,25.08,19,33.58,32.24.09.15.19.29.28.44.93,1.48,1.61,1.6,2.07.22,27.64-62.07-80.08-59.9-56.97-79.93,41.83-36.24,45.13-46.22,45.13-46.22Z"/>
    <path class="cls-2" d="M145.22,167.2c-3,3.93-12.46,13.73-16.55,19.27-1.42,1.93-.72,4.69,1.47,5.69,1.15.53,2.6,1.16,4.35,1.94,11.55,5.2,22.97,10.35,34.11,16.4,0,0-9.39-37.65-23.38-43.3Z"/>
    <path class="cls-2" d="M101.73,61.04s-9.24-9.53-23.55-7.79c-14.2,1.72-17.43,12.96-17.43,12.96,0,0,22.31-.64,25.46-1.17,3.15-.54,6-2.8,9.51-1.26,3.5,1.54,6.02-2.73,6.02-2.73Z"/>
    <path class="cls-2" d="M114.19,107.23l-.06.06c-4.78,4.27-5.31,10.01-1.31,14.18l1.73,1.8,1.64-2.02c3.83-4.73,3.02-10.41-2-14.01h0Z"/>
    <path class="cls-2" d="M126.05,61.04s9.24-9.53,23.55-7.79c14.2,1.72,17.43,12.96,17.43,12.96,0,0-22.31-.64-25.46-1.17-3.15-.54-6-2.8-9.51-1.26-3.5,1.54-6.02-2.73-6.02-2.73Z"/>
  </g>
  <path class="cls-1" d="M163.02,288.7c-.52-5.64-1.16-14.45-5.29-22.16-3.89-7.24-9.64-12.3-22.27-20.13-8.97-5.55-17.83-10.22-26.23-16.6-6.66-5.05-15.4-10.09-19.98-17.15-2.31-3.55-4.31-6.75-4.32-11.14-.01-5.5,1.09-11.37,4.63-15.74,0,0,0,0,0-.01.42-.65,14.02-21.42,40.73-36.31-15.21,7.75-30.97,15.12-43.37,26.67-.7.65-1.38,1.31-2.04,1.98-6.99,7.03-10.52,12.53-13.34,22.09-1,3.28-1.67,6.66-2,10.06-1.85,18.89,7.13,33.42,13.73,44.08,3.13,5.07,11.04,17.19,25.24,28.15,4.31-11.28,18.11-16.21,18.59-16.38-7.62,5.31-11.13,14.68-12.66,20.62,4.47,2.96,9.45,5.74,14.97,8.17,13.5,5.92,25.7,7.7,33.7,8.26.29-3.59.46-8.57-.08-14.45ZM143.67,288.78c-4.26-.17-7.58-3.75-7.4-8.02.16-4.26,3.75-7.58,8.01-7.41,4.26.16,7.58,3.75,7.41,8.02-.17,4.26-3.75,7.58-8.02,7.41Z"/>
</svg>