<?xml version="1.0" encoding="UTF-8"?>
<svg id="Layer_1" data-name="Layer 1" xmlns="http://www.w3.org/2000/svg" viewBox="0 0 587.22 380.61">
  <defs>
    <style>
      .cls-1 {
        fill: #fff;
      }
    </style>
  </defs>
  <g>
    <g>
      <circle class="cls-1" cx="123.57" cy="121.52" r="9.24"/>
      <circle class="cls-1" cx="167.34" cy="121.52" r="9.24"/>
      <g>
        <path class="cls-1" d="M145.28,115.58c0,.17,0,.26,0,.26,0,0,0-.09,0-.26Z"/>
        <path class="cls-1" d="M95.1,121.93s-.03-.3-.07-.86h0c0,2.39.19.44.07.86Z"/>
        <path class="cls-1" d="M145.29,75.53c-51,.29-50.64,39.26-50.26,45.54.03-6.53,5.31-24.62,27.47-25.74,21.31-1.08,22.7,17.8,22.78,20.25-.02-2.35.55-20.02,23.71-20.25,17.94-.17,23.74,10.26,25.79,20.79.83,4.24.97,8.59.65,12.9-.3,3.94-.7,9.57-3.66,16-3.31,7.22-9.14,11.84-15.81,15.77-4.72,2.78-9.62,5.35-14.59,7.88-26.71,14.89-40.31,35.66-40.73,36.31,11.38-14.08,27.7-21.59,43.1-30.25,9.42-5.3,17.13-9.14,24.75-16.97.89-.91,1.74-1.88,2.52-2.9,18.33-24.2,13.05-79.67-45.73-79.34Z"/>
      </g>
      <path class="cls-1" d="M192.8,158c-50.15,47.07-108.28,43.81-24.09,93.24,13.56,7.96,25.08,19,33.58,32.24.09.15.19.29.28.44.93,1.48,1.61,1.6,2.07.22,27.64-62.07-80.08-59.9-56.97-79.93,41.83-36.24,45.13-46.22,45.13-46.22Z"/>
      <path class="cls-1" d="M176.3,186.43c-3,3.93-12.46,13.73-16.55,19.27-1.42,1.93-.72,4.69,1.47,5.69,1.15.53,2.6,1.16,4.35,1.94,11.55,5.2,22.97,10.35,34.11,16.4,0,0-9.39-37.65-23.38-43.3Z"/>
      <path class="cls-1" d="M132.81,80.27s-9.24-9.53-23.55-7.79c-14.2,1.72-17.43,12.96-17.43,12.96,0,0,22.31-.64,25.46-1.17,3.15-.54,6-2.8,9.51-1.26,3.5,1.54,6.02-2.73,6.02-2.73Z"/>
      <path class="cls-1" d="M145.27,126.46l-.06.06c-4.78,4.27-5.31,10.01-1.31,14.18l1.73,1.8,1.64-2.02c3.83-4.73,3.02-10.41-2-14.01h0Z"/>
      <path class="cls-1" d="M157.12,80.27s9.24-9.53,23.55-7.79c14.2,1.72,17.43,12.96,17.43,12.96,0,0-22.31-.64-25.46-1.17-3.15-.54-6-2.8-9.51-1.26s-6.02-2.73-6.02-2.73Z"/>
    </g>
    <path class="cls-1" d="M194.1,307.93c-.52-5.64-1.16-14.45-5.29-22.16-3.89-7.24-9.64-12.3-22.27-20.13-8.97-5.55-17.83-10.22-26.23-16.6-6.66-5.05-15.4-10.09-19.98-17.15-2.31-3.55-4.31-6.75-4.32-11.14-.01-5.5,1.09-11.37,4.63-15.74,0,0,0,0,0-.01.42-.65,14.02-21.42,40.73-36.31-15.21,7.75-30.97,15.12-43.37,26.67-.7.65-1.38,1.31-2.04,1.98-6.99,7.03-10.52,12.53-13.34,22.09-1,3.28-1.67,6.66-2,10.06-1.85,18.89,7.13,33.42,13.73,44.08,3.13,5.07,11.04,17.19,25.24,28.15,4.31-11.28,18.11-16.21,18.59-16.38-7.62,5.31-11.13,14.68-12.66,20.62,4.47,2.96,9.45,5.74,14.97,8.17,13.5,5.92,25.7,7.7,33.7,8.26.29-3.59.46-8.57-.08-14.45ZM174.75,308.01c-4.26-.17-7.58-3.75-7.4-8.02.16-4.26,3.75-7.58,8.01-7.41,4.26.16,7.58,3.75,7.41,8.02-.17,4.26-3.75,7.58-8.02,7.41Z"/>
  </g>
  <g>
    <path class="cls-1" d="M248.55,178.79v-51.91h12.61v40.98h20.09v10.92h-32.7Z"/>
    <path class="cls-1" d="M343.35,172.19c-1.71,2.49-3.96,4.41-6.74,5.76-2.79,1.34-6.06,2.02-9.82,2.02-2.88,0-5.54-.58-7.95-1.72-2.42-1.15-4.34-2.77-5.76-4.88-1.12,1.86-2.85,3.37-5.17,4.55-2.32,1.17-5.54,1.76-9.64,1.76-1.56,0-3.18-.21-4.84-.62-1.66-.41-3.18-1.07-4.55-1.98-1.37-.9-2.49-2.08-3.37-3.52-.88-1.44-1.32-3.21-1.32-5.32,0-2.54.66-4.58,1.98-6.12,1.32-1.54,3.08-2.74,5.28-3.59,2.2-.85,4.7-1.42,7.51-1.69,2.81-.27,5.71-.4,8.69-.4v-.51c0-2.05-.59-3.54-1.76-4.47-1.17-.93-2.76-1.39-4.77-1.39-1.71,0-3.37.37-4.99,1.1s-2.98,1.61-4.11,2.64l-6.01-6.53c2.1-2.05,4.58-3.59,7.44-4.62s5.78-1.54,8.76-1.54,5.51.54,7.44,1.61c1.93,1.08,3.38,2.32,4.36,3.74,1.32-1.56,3.04-2.85,5.17-3.85,2.13-1,4.58-1.5,7.37-1.5s5.16.45,7.4,1.36c2.25.91,4.18,2.21,5.79,3.92,1.61,1.71,2.87,3.79,3.78,6.23.9,2.44,1.36,5.23,1.36,8.36,0,.49-.01.98-.04,1.47-.03.49-.06.95-.11,1.39h-26.39c.24,2.05,1.2,3.71,2.86,4.99,1.66,1.27,3.59,1.91,5.79,1.91,1.95,0,3.59-.35,4.91-1.06,1.32-.71,2.37-1.63,3.15-2.75l8.28,5.28ZM308.01,163.61h-1.54c-3.47,0-6.21.27-8.21.81-2,.54-3.01,1.69-3.01,3.45,0,.68.16,1.27.48,1.76.32.49.72.88,1.21,1.17.49.29,1.05.5,1.69.62.63.12,1.25.18,1.83.18,2.44,0,4.31-.61,5.61-1.83,1.29-1.22,1.94-2.88,1.94-4.99v-1.17ZM333.74,156.36c0-1.91-.6-3.54-1.8-4.91-1.2-1.37-2.99-2.05-5.39-2.05-1.17,0-2.25.18-3.23.55-.98.37-1.83.87-2.57,1.5-.73.64-1.32,1.38-1.76,2.24-.44.86-.68,1.75-.73,2.68h15.47Z"/>
    <path class="cls-1" d="M376.04,152.18c-.54-.15-1.06-.24-1.58-.29-.51-.05-1.02-.07-1.5-.07-1.61,0-2.97.29-4.07.88-1.1.59-1.98,1.29-2.64,2.12-.66.83-1.14,1.73-1.43,2.71-.29.97-.44,1.83-.44,2.56v18.72h-12.02v-36.47h11.58v5.28h.15c.93-1.87,2.25-3.4,3.96-4.58,1.71-1.18,3.69-1.77,5.94-1.77.49,0,.96.03,1.43.07.46.05.84.12,1.14.22l-.51,10.63Z"/>
    <path class="cls-1" d="M394.45,130.62c0,.93-.18,1.8-.55,2.6-.37.81-.86,1.5-1.47,2.09-.61.59-1.34,1.05-2.2,1.39-.86.34-1.75.51-2.68.51-1.96,0-3.59-.65-4.91-1.94-1.32-1.29-1.98-2.85-1.98-4.66,0-.88.17-1.72.51-2.53.34-.81.83-1.5,1.47-2.09.63-.59,1.37-1.06,2.2-1.43.83-.37,1.73-.55,2.71-.55.93,0,1.82.17,2.68.51.85.34,1.59.81,2.2,1.39.61.59,1.1,1.28,1.47,2.09.37.81.55,1.68.55,2.6ZM381.54,178.79v-36.51h12.02v36.51h-12.02Z"/>
    <path class="cls-1" d="M427.07,178.79v-19.94c0-1.03-.09-2-.26-2.93-.17-.93-.45-1.75-.84-2.46-.39-.71-.94-1.27-1.65-1.69-.71-.41-1.6-.62-2.68-.62s-2.02.21-2.82.62c-.81.42-1.48.99-2.02,1.72-.54.73-.94,1.58-1.21,2.53-.27.95-.4,1.94-.4,2.97v19.8h-12.1v-36.51h11.66v5.06h.15c.44-.78,1.01-1.55,1.72-2.31.71-.76,1.54-1.4,2.49-1.94.95-.54,1.99-.98,3.12-1.32,1.12-.34,2.32-.51,3.59-.51,2.44,0,4.52.44,6.23,1.32,1.71.88,3.09,2.02,4.14,3.41,1.05,1.39,1.81,2.99,2.27,4.8.46,1.81.7,3.62.7,5.43v22.58h-12.1Z"/>
    <path class="cls-1" d="M486.97,175.34c0,3.57-.51,6.67-1.54,9.31-1.03,2.64-2.47,4.83-4.33,6.56-1.86,1.73-4.12,3.03-6.78,3.89-2.66.85-5.61,1.28-8.83,1.28s-6.54-.49-9.93-1.47c-3.4-.98-6.34-2.39-8.83-4.25l6.01-8.58c1.76,1.56,3.7,2.72,5.83,3.48,2.13.76,4.22,1.14,6.27,1.14,3.52,0,6.12-.93,7.81-2.79,1.69-1.86,2.53-4.33,2.53-7.4v-2.2h-.22c-1.12,1.47-2.64,2.64-4.54,3.52-1.91.88-4.08,1.32-6.53,1.32-2.79,0-5.25-.5-7.41-1.5-2.15-1-3.97-2.36-5.46-4.07-1.49-1.71-2.63-3.7-3.41-5.98-.78-2.27-1.17-4.68-1.17-7.22s.39-4.96,1.17-7.26c.78-2.3,1.92-4.33,3.41-6.09,1.49-1.76,3.31-3.16,5.46-4.22,2.15-1.05,4.59-1.58,7.33-1.58,2.3,0,4.5.47,6.6,1.39,2.1.93,3.79,2.37,5.06,4.33h.15v-4.69h11.36v33.07ZM475.53,160.31c0-1.22-.21-2.39-.62-3.52-.42-1.12-1.02-2.11-1.8-2.97-.78-.85-1.71-1.53-2.79-2.02-1.08-.49-2.3-.73-3.67-.73s-2.58.24-3.63.73c-1.05.49-1.94,1.15-2.68,1.98-.73.83-1.3,1.81-1.69,2.93-.39,1.13-.59,2.32-.59,3.59s.19,2.4.59,3.52c.39,1.13.95,2.11,1.69,2.97.73.86,1.62,1.54,2.68,2.05,1.05.51,2.26.77,3.63.77s2.6-.26,3.7-.77c1.1-.51,2.03-1.18,2.79-2.02.76-.83,1.34-1.81,1.76-2.93.41-1.12.62-2.32.62-3.59Z"/>
    <path class="cls-1" d="M257.2,209.21c0,1.27-.45,2.32-1.35,3.15-.9.83-1.98,1.25-3.24,1.25s-2.33-.43-3.2-1.28c-.87-.85-1.31-1.89-1.31-3.12s.44-2.33,1.31-3.19c.87-.85,1.94-1.28,3.2-1.28s2.34.43,3.24,1.28c.9.86,1.35,1.92,1.35,3.19ZM256.1,256.5h-6.89v-34.75h6.89v34.75Z"/>
    <path class="cls-1" d="M302.8,227.4h-8.06v29.11h-6.89v-29.11h-6.89v-5.65h6.89v-7.26c0-2.05.23-3.95.7-5.68.46-1.73,1.22-3.24,2.27-4.51,1.05-1.27,2.39-2.27,4.03-3.01,1.64-.73,3.63-1.1,5.98-1.1,1.66,0,3.1.17,4.33.51l-.81,5.94c-.54-.15-1.08-.27-1.61-.37-.54-.1-1.15-.15-1.83-.15-1.32,0-2.38.23-3.19.7-.81.46-1.43,1.09-1.87,1.87-.44.78-.73,1.68-.88,2.68-.15,1-.22,2.04-.22,3.12v7.26h8.06v5.65Z"/>
    <path class="cls-1" d="M309.11,225.64c-.05-1.47-.12-2.76-.22-3.89h6.53c.1.88.17,1.89.22,3.04.05,1.15.07,2.09.07,2.82h.22c.98-2.05,2.41-3.7,4.29-4.95,1.88-1.25,4-1.87,6.34-1.87,1.07,0,1.98.1,2.71.29l-.29,6.38c-.98-.24-2.03-.37-3.15-.37-1.66,0-3.1.31-4.33.92-1.22.61-2.24,1.43-3.04,2.46-.81,1.03-1.41,2.21-1.8,3.56-.39,1.34-.59,2.75-.59,4.22v18.26h-6.89v-27.27c0-.93-.03-2.13-.07-3.59Z"/>
    <path class="cls-1" d="M343.79,209.21c0,1.27-.45,2.32-1.35,3.15-.9.83-1.98,1.25-3.24,1.25s-2.33-.43-3.2-1.28c-.87-.85-1.31-1.89-1.31-3.12s.44-2.33,1.31-3.19c.87-.85,1.94-1.28,3.2-1.28s2.34.43,3.24,1.28c.9.86,1.35,1.92,1.35,3.19ZM342.69,256.5h-6.89v-34.75h6.89v34.75Z"/>
    <path class="cls-1" d="M361.75,256.5h-6.89v-55.43h6.89v55.43Z"/>
    <path class="cls-1" d="M398.26,256.5c-.1-.88-.17-1.87-.22-2.97-.05-1.1-.07-2.02-.07-2.75h-.15c-.88,1.86-2.36,3.43-4.44,4.73-2.08,1.29-4.39,1.94-6.93,1.94-2.25,0-4.19-.37-5.83-1.1-1.64-.73-2.98-1.75-4.03-3.04-1.05-1.29-1.83-2.8-2.35-4.51-.51-1.71-.77-3.54-.77-5.5v-21.56h6.89v19.21c0,1.42.11,2.77.33,4.07.22,1.3.62,2.43,1.21,3.41.59.98,1.39,1.76,2.42,2.35s2.35.88,3.96.88c2.79,0,5.03-1.04,6.74-3.12,1.71-2.08,2.57-4.85,2.57-8.32v-18.48h6.89v27.27c0,.93.02,2.13.07,3.59.05,1.47.12,2.76.22,3.89h-6.53Z"/>
    <path class="cls-1" d="M432.79,227.4h-8.06v29.11h-6.89v-29.11h-6.89v-5.65h6.89v-7.26c0-2.05.23-3.95.7-5.68.46-1.73,1.22-3.24,2.27-4.51,1.05-1.27,2.39-2.27,4.03-3.01,1.64-.73,3.63-1.1,5.98-1.1,1.66,0,3.1.17,4.33.51l-.81,5.94c-.54-.15-1.08-.27-1.61-.37-.54-.1-1.15-.15-1.83-.15-1.32,0-2.38.23-3.19.7-.81.46-1.43,1.09-1.87,1.87-.44.78-.73,1.68-.88,2.68-.15,1-.22,2.04-.22,3.12v7.26h8.06v5.65Z"/>
    <path class="cls-1" d="M455.08,227.4h-9.24v18.05c0,2.1.39,3.59,1.17,4.49.78.9,2.03,1.35,3.74,1.35.64,0,1.32-.07,2.05-.2.73-.13,1.39-.34,1.98-.6l.22,5.64c-.83.29-1.75.52-2.75.7-1,.17-2.04.26-3.12.26-3.28,0-5.78-.9-7.51-2.71-1.74-1.81-2.6-4.52-2.6-8.14v-18.84h-6.67v-5.65h6.67v-9.97h6.82v9.97h9.24v5.65Z"/>
  </g>
</svg>